<svg width="43" height="39" viewBox="0 0 43 39" fill="none" xmlns="http://www.w3.org/2000/svg">
<g filter="url(#filter0_d_92_4)">
<path d="M15.4365 5.16275e-07C17.5103 -0.00059836 19.5451 0.519833 21.3215 1.50523C23.098 2.49062 24.5487 3.90362 25.5175 5.592C26.7074 4.95146 28.0418 4.57232 29.4168 4.48407C30.7918 4.39583 32.1704 4.60087 33.4454 5.08323C34.7203 5.56559 35.8572 6.31227 36.7675 7.26518C37.6779 8.2181 38.3373 9.35155 38.6943 10.5774C39.0513 11.8032 39.0963 13.0883 38.8259 14.3327C38.5554 15.5772 37.9768 16.7474 37.135 17.7524C36.2933 18.7573 35.211 19.57 33.9725 20.127C32.734 20.684 31.3727 20.9704 29.9943 20.964L15.4039 21C12.3794 21 9.47876 19.8938 7.34012 17.9246C5.20148 15.9555 4 13.2848 4 10.5C4 7.71523 5.20148 5.04451 7.34012 3.07538C9.47876 1.10625 12.3794 5.57771e-07 15.4039 5.16275e-07H15.4365Z" fill="url(#paint0_linear_92_4)"/>
</g>
<path d="M38.2211 16.0783C39.5547 11.3048 36.7662 6.35401 31.9928 5.02034C27.2193 3.68667 22.2685 6.47516 20.9348 11.2486C19.6012 16.0221 22.3897 20.9729 27.1631 22.3065C31.9366 23.6402 36.8874 20.8517 38.2211 16.0783Z" fill="url(#paint1_linear_92_4)"/>
<g filter="url(#filter1_d_92_4)">
<path d="M24 28.396C24 28.738 23.9483 29.0766 23.8478 29.3925C23.7472 29.7084 23.5999 29.9955 23.4142 30.2373C23.2285 30.4791 23.008 30.6709 22.7654 30.8018C22.5227 30.9326 22.2626 31 22 31C21.7374 31 21.4773 30.9326 21.2346 30.8018C20.992 30.6709 20.7715 30.4791 20.5858 30.2373C20.4001 29.9955 20.2527 29.7084 20.1522 29.3925C20.0517 29.0766 20 28.738 20 28.396C20 26.114 21.6129 24 22 24C22.3871 24 24 26.1 24 28.396Z" fill="#0BAEFF"/>
</g>
<defs>
<filter id="filter0_d_92_4" x="0" y="0" width="43" height="29" filterUnits="userSpaceOnUse" color-interpolation-filters="sRGB">
<feFlood flood-opacity="0" result="BackgroundImageFix"/>
<feColorMatrix in="SourceAlpha" type="matrix" values="0 0 0 0 0 0 0 0 0 0 0 0 0 0 0 0 0 0 127 0" result="hardAlpha"/>
<feOffset dy="4"/>
<feGaussianBlur stdDeviation="2"/>
<feComposite in2="hardAlpha" operator="out"/>
<feColorMatrix type="matrix" values="0 0 0 0 0 0 0 0 0 0 0 0 0 0 0 0 0 0 0.25 0"/>
<feBlend mode="normal" in2="BackgroundImageFix" result="effect1_dropShadow_92_4"/>
<feBlend mode="normal" in="SourceGraphic" in2="effect1_dropShadow_92_4" result="shape"/>
</filter>
<filter id="filter1_d_92_4" x="16" y="24" width="12" height="15" filterUnits="userSpaceOnUse" color-interpolation-filters="sRGB">
<feFlood flood-opacity="0" result="BackgroundImageFix"/>
<feColorMatrix in="SourceAlpha" type="matrix" values="0 0 0 0 0 0 0 0 0 0 0 0 0 0 0 0 0 0 127 0" result="hardAlpha"/>
<feOffset dy="4"/>
<feGaussianBlur stdDeviation="2"/>
<feComposite in2="hardAlpha" operator="out"/>
<feColorMatrix type="matrix" values="0 0 0 0 0 0 0 0 0 0 0 0 0 0 0 0 0 0 0.25 0"/>
<feBlend mode="normal" in2="BackgroundImageFix" result="effect1_dropShadow_92_4"/>
<feBlend mode="normal" in="SourceGraphic" in2="effect1_dropShadow_92_4" result="shape"/>
</filter>
<linearGradient id="paint0_linear_92_4" x1="12.5627" y1="21.894" x2="24.9163" y2="4.5199" gradientUnits="userSpaceOnUse">
<stop stop-color="#F2F2F2"/>
<stop offset="1" stop-color="#CFCFCF"/>
</linearGradient>
<linearGradient id="paint1_linear_92_4" x1="33.2475" y1="10.4737" x2="22.8453" y2="19.5212" gradientUnits="userSpaceOnUse">
<stop offset="0.02" stop-color="white"/>
<stop offset="1" stop-color="white" stop-opacity="0"/>
</linearGradient>
</defs>
</svg>
