<svg width="43" height="43" viewBox="0 0 43 43" fill="none" xmlns="http://www.w3.org/2000/svg">
<path d="M31.5459 18.8031L22.6382 4.61843C22.5089 4.43704 22.3382 4.28916 22.1402 4.18713C21.9422 4.0851 21.7227 4.03186 21.5 4.03186C21.2773 4.03186 21.0578 4.0851 20.8598 4.18713C20.6618 4.28916 20.4911 4.43704 20.3618 4.61843L11.4138 18.8702C10.1707 20.8755 9.47823 23.173 9.40625 25.5312C9.40625 28.7387 10.6804 31.8148 12.9484 34.0828C15.2164 36.3508 18.2925 37.625 21.5 37.625C24.7075 37.625 27.7836 36.3508 30.0516 34.0828C32.3196 31.8148 33.5938 28.7387 33.5938 25.5312C33.5165 23.1471 32.81 20.8259 31.5459 18.8031ZM21.5 34.9375C19.0063 34.9343 16.6156 33.9422 14.8523 32.1789C13.089 30.4156 12.097 28.0249 12.0938 25.5312C12.1652 23.6521 12.7296 21.8248 13.7304 20.2328L14.9868 18.2306L28.5238 31.7676C27.6446 32.7637 26.5637 33.5615 25.3528 34.1082C24.1419 34.655 22.8286 34.9367 21.5 34.9375Z" fill="white"/>
</svg>
