<svg width="62" height="55" viewBox="0 0 62 55" fill="none" xmlns="http://www.w3.org/2000/svg">
<g filter="url(#filter0_d_56_33)">
<path d="M21.6599 0.900025C24.8424 0.899027 27.9649 1.76641 30.6909 3.40873C33.417 5.05105 35.6432 7.40606 37.1299 10.22C38.9559 9.15245 41.0036 8.52055 43.1137 8.37348C45.2237 8.22641 47.3393 8.56813 49.2957 9.37207C51.2522 10.176 52.9968 11.4205 54.3939 13.0087C55.7909 14.5969 56.8027 16.4859 57.3505 18.529C57.8984 20.572 57.9675 22.7138 57.5525 24.7879C57.1375 26.862 56.2496 28.8124 54.9578 30.4873C53.6661 32.1623 52.0053 33.5166 50.1047 34.445C48.2042 35.3734 46.115 35.8508 43.9999 35.84L21.6099 35.9C16.9686 35.9 12.5174 34.0563 9.2355 30.7744C5.95361 27.4925 4.10986 23.0413 4.10986 18.4C4.10986 13.7587 5.95361 9.30754 9.2355 6.02566C12.5174 2.74377 16.9686 0.900025 21.6099 0.900025H21.6599Z" fill="url(#paint0_linear_56_33)"/>
</g>
<path d="M57.2975 25.7944C59.3409 18.4806 55.0684 10.895 47.7546 8.85161C40.4408 6.80818 32.8552 11.0807 30.8118 18.3945C28.7683 25.7083 33.0408 33.2939 40.3547 35.3373C47.6685 37.3807 55.254 33.1082 57.2975 25.7944Z" fill="url(#paint1_linear_56_33)"/>
<g filter="url(#filter1_d_56_33)">
<path d="M34.2198 44.28C34.2198 44.7685 34.1236 45.2523 33.9366 45.7036C33.7497 46.1549 33.4757 46.565 33.1302 46.9104C32.7848 47.2559 32.3747 47.5299 31.9234 47.7168C31.472 47.9038 30.9883 48 30.4998 48C30.0113 48 29.5275 47.9038 29.0762 47.7168C28.6249 47.5299 28.2148 47.2559 27.8693 46.9104C27.5239 46.565 27.2499 46.1549 27.063 45.7036C26.876 45.2523 26.7798 44.7685 26.7798 44.28C26.7798 41.02 29.7798 38 30.4998 38C31.2198 38 34.2198 41 34.2198 44.28Z" fill="#0BAEFF"/>
</g>
<defs>
<filter id="filter0_d_56_33" x="0.109863" y="0.900024" width="61.71" height="43" filterUnits="userSpaceOnUse" color-interpolation-filters="sRGB">
<feFlood flood-opacity="0" result="BackgroundImageFix"/>
<feColorMatrix in="SourceAlpha" type="matrix" values="0 0 0 0 0 0 0 0 0 0 0 0 0 0 0 0 0 0 127 0" result="hardAlpha"/>
<feOffset dy="4"/>
<feGaussianBlur stdDeviation="2"/>
<feComposite in2="hardAlpha" operator="out"/>
<feColorMatrix type="matrix" values="0 0 0 0 0 0 0 0 0 0 0 0 0 0 0 0 0 0 0.25 0"/>
<feBlend mode="normal" in2="BackgroundImageFix" result="effect1_dropShadow_56_33"/>
<feBlend mode="normal" in="SourceGraphic" in2="effect1_dropShadow_56_33" result="shape"/>
</filter>
<filter id="filter1_d_56_33" x="22.7798" y="38" width="15.4399" height="18" filterUnits="userSpaceOnUse" color-interpolation-filters="sRGB">
<feFlood flood-opacity="0" result="BackgroundImageFix"/>
<feColorMatrix in="SourceAlpha" type="matrix" values="0 0 0 0 0 0 0 0 0 0 0 0 0 0 0 0 0 0 127 0" result="hardAlpha"/>
<feOffset dy="4"/>
<feGaussianBlur stdDeviation="2"/>
<feComposite in2="hardAlpha" operator="out"/>
<feColorMatrix type="matrix" values="0 0 0 0 0 0 0 0 0 0 0 0 0 0 0 0 0 0 0.25 0"/>
<feBlend mode="normal" in2="BackgroundImageFix" result="effect1_dropShadow_56_33"/>
<feBlend mode="normal" in="SourceGraphic" in2="effect1_dropShadow_56_33" result="shape"/>
</filter>
<linearGradient id="paint0_linear_56_33" x1="17.2499" y1="37.39" x2="38.3399" y2="10.08" gradientUnits="userSpaceOnUse">
<stop stop-color="#F2F2F2"/>
<stop offset="1" stop-color="#CFCFCF"/>
</linearGradient>
<linearGradient id="paint1_linear_56_33" x1="49.6771" y1="17.2071" x2="33.739" y2="31.0697" gradientUnits="userSpaceOnUse">
<stop offset="0.02" stop-color="white"/>
<stop offset="1" stop-color="white" stop-opacity="0"/>
</linearGradient>
</defs>
</svg>
