<svg width="32" height="32" viewBox="0 0 32 32" fill="none" xmlns="http://www.w3.org/2000/svg">
<path d="M17.5052 16L25.6652 8.747C25.8166 8.61221 25.9235 8.43456 25.9717 8.23762C26.0199 8.04067 26.0071 7.83374 25.9349 7.64425C25.8628 7.45476 25.7348 7.29168 25.5678 7.17662C25.4009 7.06156 25.2029 6.99996 25.0002 7H22.0002V2H20.0002V9H22.3702L16.0002 14.662L9.63018 9H12.0002V2H10.0002V7H7.00018C6.79743 6.99996 6.59945 7.06156 6.43251 7.17662C6.26557 7.29168 6.13755 7.45476 6.06542 7.64425C5.99329 7.83374 5.98046 8.04067 6.02864 8.23762C6.07682 8.43456 6.18372 8.61221 6.33518 8.747L14.4952 16L6.33518 23.253C6.18372 23.3878 6.07682 23.5654 6.02864 23.7624C5.98046 23.9593 5.99329 24.1663 6.06542 24.3558C6.13755 24.5452 6.26557 24.7083 6.43251 24.8234C6.59945 24.9384 6.79743 25 7.00018 25H10.0002V30H12.0002V23H9.63018L16.0002 17.338L22.3702 23H20.0002V30H22.0002V25H25.0002C25.2028 24.9998 25.4007 24.9381 25.5675 24.823C25.7342 24.7078 25.8621 24.5447 25.9341 24.3553C26.0061 24.1658 26.0189 23.959 25.9707 23.7621C25.9224 23.5653 25.8156 23.3877 25.6642 23.253L17.5052 16Z" fill="white"/>
</svg>
