<svg width="24" height="25" viewBox="0 0 24 25" fill="none" xmlns="http://www.w3.org/2000/svg">
<path d="M21.0002 21.875L16.6572 17.351M16.6572 17.351C17.4001 16.5772 17.9894 15.6585 18.3914 14.6474C18.7935 13.6363 19.0004 12.5527 19.0004 11.4583C19.0004 10.3639 18.7935 9.28027 18.3914 8.26919C17.9894 7.25812 17.4001 6.33944 16.6572 5.5656C15.9143 4.79175 15.0324 4.17791 14.0618 3.75911C13.0911 3.34031 12.0508 3.12476 11.0002 3.12476C9.9496 3.12476 8.90929 3.34031 7.93866 3.75911C6.96803 4.17791 6.08609 4.79175 5.34321 5.5656C3.84288 7.12844 3 9.24811 3 11.4583C3 13.6685 3.84288 15.7882 5.34321 17.351C6.84354 18.9139 8.87842 19.7919 11.0002 19.7919C13.122 19.7919 15.1569 18.9139 16.6572 17.351Z" stroke="white" stroke-linecap="round" stroke-linejoin="round"/>
</svg>
