<svg width="29" height="29" viewBox="0 0 29 29" fill="none" xmlns="http://www.w3.org/2000/svg">
<path d="M13.8203 4.53125V1.8125C13.8203 1.63224 13.8919 1.45935 14.0194 1.33189C14.1469 1.20442 14.3197 1.13281 14.5 1.13281C14.6803 1.13281 14.8531 1.20442 14.9806 1.33189C15.1081 1.45935 15.1797 1.63224 15.1797 1.8125V4.53125C15.1797 4.71151 15.1081 4.8844 14.9806 5.01186C14.8531 5.13933 14.6803 5.21094 14.5 5.21094C14.3197 5.21094 14.1469 5.13933 14.0194 5.01186C13.8919 4.8844 13.8203 4.71151 13.8203 4.53125ZM21.5234 14.5C21.5234 15.8891 21.1115 17.247 20.3398 18.402C19.568 19.557 18.4711 20.4572 17.1878 20.9888C15.9044 21.5204 14.4922 21.6595 13.1298 21.3885C11.7674 21.1175 10.5159 20.4486 9.53368 19.4663C8.55143 18.4841 7.88252 17.2326 7.61152 15.8702C7.34052 14.5078 7.4796 13.0956 8.01119 11.8122C8.54278 10.5289 9.44299 9.43197 10.598 8.66022C11.753 7.88848 13.1109 7.47656 14.5 7.47656C16.3621 7.47866 18.1473 8.2193 19.464 9.536C20.7807 10.8527 21.5213 12.6379 21.5234 14.5ZM20.1641 14.5C20.1641 13.3798 19.8319 12.2847 19.2095 11.3532C18.5871 10.4218 17.7025 9.69579 16.6675 9.26709C15.6326 8.83839 14.4937 8.72622 13.395 8.94477C12.2963 9.16332 11.287 9.70277 10.4949 10.4949C9.70277 11.287 9.16332 12.2963 8.94477 13.395C8.72622 14.4937 8.83839 15.6326 9.26709 16.6675C9.69579 17.7025 10.4218 18.5871 11.3532 19.2095C12.2847 19.8319 13.3798 20.1641 14.5 20.1641C16.0017 20.1623 17.4413 19.5649 18.5031 18.5031C19.5649 17.4413 20.1623 16.0017 20.1641 14.5ZM6.76969 7.73031C6.83191 7.79709 6.90695 7.85065 6.99032 7.8878C7.0737 7.92495 7.1637 7.94493 7.25496 7.94654C7.34623 7.94815 7.43688 7.93136 7.52151 7.89717C7.60614 7.86299 7.68302 7.81211 7.74757 7.74757C7.81211 7.68302 7.86299 7.60614 7.89717 7.52151C7.93136 7.43688 7.94815 7.34623 7.94654 7.25496C7.94493 7.1637 7.92495 7.0737 7.8878 6.99032C7.85065 6.90695 7.79709 6.83191 7.73031 6.76969L5.91781 4.95719C5.78897 4.83713 5.61855 4.77177 5.44246 4.77487C5.26638 4.77798 5.09837 4.84931 4.97384 4.97384C4.84931 5.09837 4.77798 5.26638 4.77487 5.44246C4.77177 5.61855 4.83713 5.78897 4.95719 5.91781L6.76969 7.73031ZM6.76969 21.2697L4.95719 23.0822C4.89041 23.1444 4.83685 23.2194 4.7997 23.3028C4.76255 23.3862 4.74257 23.4762 4.74096 23.5675C4.73935 23.6587 4.75614 23.7494 4.79033 23.834C4.82451 23.9186 4.87539 23.9955 4.93993 24.0601C5.00448 24.1246 5.08136 24.1755 5.16599 24.2097C5.25062 24.2439 5.34127 24.2606 5.43254 24.259C5.5238 24.2574 5.6138 24.2375 5.69718 24.2003C5.78055 24.1632 5.85559 24.1096 5.91781 24.0428L7.73031 22.2303C7.79709 22.1681 7.85065 22.0931 7.8878 22.0097C7.92495 21.9263 7.94493 21.8363 7.94654 21.745C7.94815 21.6538 7.93136 21.5631 7.89717 21.4785C7.86299 21.3939 7.81211 21.317 7.74757 21.2524C7.68302 21.1879 7.60614 21.137 7.52151 21.1028C7.43688 21.0686 7.34623 21.0519 7.25496 21.0535C7.1637 21.0551 7.0737 21.075 6.99032 21.1122C6.90695 21.1493 6.83191 21.2029 6.76969 21.2697ZM21.75 7.92969C21.9302 7.92953 22.103 7.85781 22.2303 7.73031L24.0428 5.91781C24.1629 5.78897 24.2282 5.61855 24.2251 5.44246C24.222 5.26638 24.1507 5.09837 24.0262 4.97384C23.9016 4.84931 23.7336 4.77798 23.5575 4.77487C23.3815 4.77177 23.211 4.83713 23.0822 4.95719L21.2697 6.76969C21.1748 6.86474 21.1101 6.9858 21.0839 7.11756C21.0578 7.24933 21.0712 7.3859 21.1226 7.51002C21.174 7.63415 21.261 7.74026 21.3727 7.81495C21.4844 7.88964 21.6157 7.92957 21.75 7.92969ZM22.2303 21.2697C22.1015 21.1496 21.931 21.0843 21.755 21.0874C21.5789 21.0905 21.4109 21.1618 21.2863 21.2863C21.1618 21.4109 21.0905 21.5789 21.0874 21.755C21.0843 21.931 21.1496 22.1015 21.2697 22.2303L23.0822 24.0428C23.211 24.1629 23.3815 24.2282 23.5575 24.2251C23.7336 24.222 23.9016 24.1507 24.0262 24.0262C24.1507 23.9016 24.222 23.7336 24.2251 23.5575C24.2282 23.3815 24.1629 23.211 24.0428 23.0822L22.2303 21.2697ZM5.21094 14.5C5.21094 14.3197 5.13933 14.1469 5.01186 14.0194C4.8844 13.8919 4.71151 13.8203 4.53125 13.8203H1.8125C1.63224 13.8203 1.45935 13.8919 1.33189 14.0194C1.20442 14.1469 1.13281 14.3197 1.13281 14.5C1.13281 14.6803 1.20442 14.8531 1.33189 14.9806C1.45935 15.1081 1.63224 15.1797 1.8125 15.1797H4.53125C4.71151 15.1797 4.8844 15.1081 5.01186 14.9806C5.13933 14.8531 5.21094 14.6803 5.21094 14.5ZM14.5 23.7891C14.3197 23.7891 14.1469 23.8607 14.0194 23.9881C13.8919 24.1156 13.8203 24.2885 13.8203 24.4688V27.1875C13.8203 27.3678 13.8919 27.5406 14.0194 27.6681C14.1469 27.7956 14.3197 27.8672 14.5 27.8672C14.6803 27.8672 14.8531 27.7956 14.9806 27.6681C15.1081 27.5406 15.1797 27.3678 15.1797 27.1875V24.4688C15.1797 24.2885 15.1081 24.1156 14.9806 23.9881C14.8531 23.8607 14.6803 23.7891 14.5 23.7891ZM27.1875 13.8203H24.4688C24.2885 13.8203 24.1156 13.8919 23.9881 14.0194C23.8607 14.1469 23.7891 14.3197 23.7891 14.5C23.7891 14.6803 23.8607 14.8531 23.9881 14.9806C24.1156 15.1081 24.2885 15.1797 24.4688 15.1797H27.1875C27.3678 15.1797 27.5406 15.1081 27.6681 14.9806C27.7956 14.8531 27.8672 14.6803 27.8672 14.5C27.8672 14.3197 27.7956 14.1469 27.6681 14.0194C27.5406 13.8919 27.3678 13.8203 27.1875 13.8203Z" fill="white"/>
</svg>
