<svg width="18" height="22" viewBox="0 0 18 22" fill="none" xmlns="http://www.w3.org/2000/svg">
<path d="M1 9.143C1 4.646 4.582 1 9 1C13.418 1 17 4.646 17 9.143C17 13.605 14.447 18.813 10.463 20.674C10.0051 20.8884 9.50563 20.9996 9 20.9996C8.49437 20.9996 7.99492 20.8884 7.537 20.674C3.553 18.812 1 13.605 1 9.144V9.143Z" stroke="white" stroke-width="1.5"/>
<path d="M9 12C10.6569 12 12 10.6569 12 9C12 7.34315 10.6569 6 9 6C7.34315 6 6 7.34315 6 9C6 10.6569 7.34315 12 9 12Z" stroke="white" stroke-width="1.5"/>
</svg>
