<svg width="31" height="31" viewBox="0 0 31 31" fill="none" xmlns="http://www.w3.org/2000/svg">
<path d="M19.1981 17.3084V6.37958C19.1904 5.39788 18.8013 4.45764 18.1131 3.75749C17.737 3.38476 17.2851 3.09727 16.7882 2.91452C16.2912 2.73177 15.7607 2.65804 15.2327 2.69833C14.2769 2.79191 13.3917 3.2432 12.7546 3.96179C12.1174 4.68038 11.7754 5.61319 11.7969 6.57333L11.8098 17.2683C10.8641 17.9787 10.1435 18.9469 9.73482 20.0569C9.32609 21.1668 9.24654 22.3711 9.50572 23.5251C9.7649 24.6792 10.3518 25.7338 11.1959 26.5624C12.0399 27.3909 13.1053 27.9581 14.264 28.1958C14.6684 28.2729 15.0793 28.3118 15.491 28.3121C17.1195 28.3124 18.6816 27.6665 19.8344 26.5162C20.9871 25.3659 21.6363 23.8052 21.6394 22.1767C21.6413 21.2309 21.4215 20.2978 20.9975 19.4523C20.5735 18.6068 19.9572 17.8725 19.1981 17.3084ZM18.5781 25.9109C18.0171 26.3701 17.361 26.6988 16.6573 26.8731C15.9535 27.0473 15.2198 27.0628 14.5094 26.9184C13.5665 26.7306 12.7021 26.2628 12.0293 25.5761C11.3564 24.8894 10.9063 24.0157 10.7377 23.0692C10.5698 22.1815 10.6538 21.2646 10.9803 20.4222C11.3067 19.5798 11.8625 18.8457 12.5848 18.3029C12.7404 18.1879 12.867 18.038 12.9545 17.8653C13.0419 17.6926 13.0878 17.5019 13.0885 17.3084V6.57333C13.0737 5.94211 13.2942 5.32795 13.7073 4.85042C14.1203 4.37289 14.6963 4.06617 15.3231 3.98999C15.3828 3.97927 15.4434 3.97494 15.504 3.97708C16.1393 3.98314 16.7468 4.2382 17.1961 4.68745C17.6453 5.1367 17.9004 5.74427 17.9065 6.37958V17.3084C17.9072 17.5019 17.9531 17.6926 18.0405 17.8653C18.128 18.038 18.2546 18.1879 18.4102 18.3029C18.9972 18.7423 19.4766 19.3094 19.812 19.9613C20.1475 20.6133 20.3302 21.333 20.3464 22.066C20.3626 22.799 20.2118 23.5261 19.9054 24.1923C19.5991 24.8584 19.1452 25.4461 18.5781 25.9109Z" fill="white"/>
<path d="M17.945 22.1767C17.945 22.8241 17.6878 23.4451 17.23 23.9029C16.7722 24.3607 16.1513 24.6179 15.5038 24.6179C14.8563 24.6179 14.2354 24.3607 13.7776 23.9029C13.3198 23.4451 13.0625 22.8241 13.0625 22.1767C13.0591 21.6428 13.2338 21.123 13.559 20.6996C13.8842 20.2762 14.3413 19.9732 14.858 19.8388V6.97506C14.858 6.80377 14.926 6.6395 15.0471 6.51838C15.1682 6.39727 15.3325 6.32922 15.5038 6.32922C15.6751 6.32922 15.8394 6.39727 15.9605 6.51838C16.0816 6.6395 16.1496 6.80377 16.1496 6.97506V19.8401C16.6649 19.9767 17.1204 20.28 17.4452 20.7027C17.77 21.1253 17.9457 21.6436 17.945 22.1767Z" fill="white"/>
</svg>
