<svg width="21" height="22" viewBox="0 0 21 22" fill="none" xmlns="http://www.w3.org/2000/svg">
<path d="M8.66 0L11.05 3.42C10.31 3.15 9.5 3 8.66 3C7.82 3 7.01 3.15 6.27 3.42L8.66 0ZM0 5L4.16 4.65C3.53935 5.17424 3.0119 5.79974 2.6 6.5C2.16 7.24 1.91 8 1.77 8.79L0 5ZM0.02 15L1.78 11.23C2.07396 12.8425 2.91445 14.3045 4.16 15.37L0.02 15ZM17.31 5L15.54 8.79C15.2568 7.17076 14.4146 5.70217 13.16 4.64L17.31 5ZM20.66 12H18.66C18.66 14.05 17.88 16.1 16.32 17.66C15.578 18.4047 14.6957 18.9949 13.7242 19.3965C12.7527 19.7982 11.7112 20.0033 10.66 20V22C13.22 22 15.78 21 17.73 19.07C19.68 17.14 20.66 14.56 20.66 12ZM16.66 12H14.66C14.66 13 14.27 14.05 13.49 14.83C12.71 15.61 11.66 16 10.66 16V18C11.4483 18.0014 12.2292 17.8472 12.9578 17.5462C13.6864 17.2452 14.3484 16.8033 14.9059 16.2459C15.4633 15.6884 15.9052 15.0264 16.2062 14.2978C16.5072 13.5692 16.6614 12.7883 16.66 12ZM8.66 7C10.31 7 11.66 8.35 11.66 10C11.66 11.65 10.31 13 8.66 13C7.01 13 5.66 11.65 5.66 10C5.66 8.35 7.01 7 8.66 7ZM8.66 5C5.9 5 3.66 7.24 3.66 10C3.66 12.76 5.9 15 8.66 15C11.42 15 13.66 12.76 13.66 10C13.66 7.24 11.42 5 8.66 5Z" fill="white"/>
</svg>
