<svg width="21" height="24" viewBox="0 0 21 24" fill="none" xmlns="http://www.w3.org/2000/svg">
<path d="M9.59209 10.1667C11.5692 10.1667 13.172 8.11464 13.172 5.58333C13.172 3.05203 11.5692 1 9.59209 1C7.61497 1 6.01221 3.05203 6.01221 5.58333" stroke="white" stroke-width="2" stroke-linecap="round"/>
<path d="M2.43213 10.1667H9.59189" stroke="white" stroke-width="2" stroke-linecap="round"/>
<path d="M3.14795 17.5H13.1716" stroke="white" stroke-width="2" stroke-linecap="round"/>
<path d="M11.0239 20.25C11.0239 21.7688 11.9856 23 13.1719 23C14.3581 23 15.3198 21.7688 15.3198 20.25C15.3198 18.7312 14.3581 17.5 13.1719 17.5" stroke="white" stroke-width="2" stroke-linecap="round"/>
<path d="M16.0356 13.8333C18.0127 13.8333 19.6155 11.7813 19.6155 9.24996C19.6155 6.71865 18.0127 4.66663 16.0356 4.66663C15.8234 4.66663 15.6156 4.69025 15.4136 4.73556" stroke="white" stroke-width="2" stroke-linecap="round"/>
<path d="M1 13.8333H16.0355" stroke="white" stroke-width="2" stroke-linecap="round"/>
</svg>
